<mxfile host="Electron" agent="Mozilla/5.0 (Macintosh; Intel Mac OS X 10_15_7) AppleWebKit/537.36 (KHTML, like Gecko) draw.io/26.0.4 Chrome/128.0.6613.186 Electron/32.2.5 Safari/537.36" version="26.0.4">
  <diagram name="Page-1" id="09gnQbrcLcjUpxyhCd7x">
    <mxGraphModel dx="1114" dy="999" grid="1" gridSize="10" guides="1" tooltips="1" connect="1" arrows="1" fold="1" page="1" pageScale="1" pageWidth="850" pageHeight="1100" background="#ffffff" math="0" shadow="0">
      <root>
        <mxCell id="0" />
        <mxCell id="1" parent="0" />
        <mxCell id="HqwWWxnO23v2ZquKlt4F-1" value="lm-evaluation-harness" style="rounded=0;whiteSpace=wrap;html=1;fillColor=#dae8fc;strokeColor=#6c8ebf;" parent="1" vertex="1">
          <mxGeometry x="200" y="280" width="280" height="40" as="geometry" />
        </mxCell>
        <mxCell id="HqwWWxnO23v2ZquKlt4F-2" value="HAP eval." style="rounded=1;whiteSpace=wrap;html=1;fillColor=#fff2cc;strokeColor=#d6b656;" parent="1" vertex="1">
          <mxGeometry x="360" y="140" width="80" height="60" as="geometry" />
        </mxCell>
        <mxCell id="c8Kz1cjIccoRoO9TKuOa-2" value="unitxt" style="rounded=0;whiteSpace=wrap;html=1;fillColor=#d5e8d4;strokeColor=#82b366;" vertex="1" parent="1">
          <mxGeometry x="280" y="240" width="200" height="40" as="geometry" />
        </mxCell>
        <mxCell id="c8Kz1cjIccoRoO9TKuOa-3" value="&lt;b&gt;...&lt;/b&gt;" style="rounded=1;whiteSpace=wrap;html=1;fillColor=#fff2cc;strokeColor=#d6b656;" vertex="1" parent="1">
          <mxGeometry x="440" y="140" width="40" height="60" as="geometry" />
        </mxCell>
        <mxCell id="c8Kz1cjIccoRoO9TKuOa-4" value="latency eval.&lt;span style=&quot;color: rgba(0, 0, 0, 0); font-family: monospace; font-size: 0px; text-align: start; text-wrap: nowrap;&quot;&gt;%3CmxGraphModel%3E%3Croot%3E%3CmxCell%20id%3D%220%22%2F%3E%3CmxCell%20id%3D%221%22%20parent%3D%220%22%2F%3E%3CmxCell%20id%3D%222%22%20value%3D%22HAP%20eval.%22%20style%3D%22rounded%3D1%3BwhiteSpace%3Dwrap%3Bhtml%3D1%3BfillColor%3D%23fff2cc%3BstrokeColor%3D%23d6b656%3B%22%20vertex%3D%221%22%20parent%3D%221%22%3E%3CmxGeometry%20x%3D%22360%22%20y%3D%22340%22%20width%3D%2280%22%20height%3D%2260%22%20as%3D%22geometry%22%2F%3E%3C%2FmxCell%3E%3CmxCell%20id%3D%223%22%20value%3D%22%26lt%3Bb%26gt%3B...%26lt%3B%2Fb%26gt%3B%22%20style%3D%22rounded%3D1%3BwhiteSpace%3Dwrap%3Bhtml%3D1%3BfillColor%3D%23fff2cc%3BstrokeColor%3D%23d6b656%3B%22%20vertex%3D%221%22%20parent%3D%221%22%3E%3CmxGeometry%20x%3D%22440%22%20y%3D%22340%22%20width%3D%2240%22%20height%3D%2260%22%20as%3D%22geometry%22%2F%3E%3C%2FmxCell%3E%3C%2Froot%3E%3C%2FmxGraphModel%3E&lt;/span&gt;" style="rounded=1;whiteSpace=wrap;html=1;fillColor=#fff2cc;strokeColor=#d6b656;" vertex="1" parent="1">
          <mxGeometry x="200" y="140" width="80" height="60" as="geometry" />
        </mxCell>
        <mxCell id="c8Kz1cjIccoRoO9TKuOa-5" value="&lt;b&gt;...&lt;/b&gt;" style="rounded=1;whiteSpace=wrap;html=1;fillColor=#fff2cc;strokeColor=#d6b656;" vertex="1" parent="1">
          <mxGeometry x="280" y="140" width="40" height="60" as="geometry" />
        </mxCell>
        <mxCell id="c8Kz1cjIccoRoO9TKuOa-7" value="&lt;b&gt;...&lt;/b&gt;" style="rounded=1;whiteSpace=wrap;html=1;fillColor=#fff2cc;strokeColor=#d6b656;" vertex="1" parent="1">
          <mxGeometry x="120" y="140" width="40" height="60" as="geometry" />
        </mxCell>
        <mxCell id="c8Kz1cjIccoRoO9TKuOa-9" value="" style="shape=curlyBracket;whiteSpace=wrap;html=1;rounded=1;flipH=1;labelPosition=right;verticalLabelPosition=middle;align=left;verticalAlign=middle;size=0.5;rotation=270;" vertex="1" parent="1">
          <mxGeometry x="405" y="44" width="30" height="120" as="geometry" />
        </mxCell>
        <mxCell id="c8Kz1cjIccoRoO9TKuOa-10" value="Example Domain" style="text;html=1;align=center;verticalAlign=middle;resizable=0;points=[];autosize=1;strokeColor=none;fillColor=none;" vertex="1" parent="1">
          <mxGeometry x="365" y="61" width="110" height="30" as="geometry" />
        </mxCell>
        <mxCell id="c8Kz1cjIccoRoO9TKuOa-11" value="" style="shape=curlyBracket;whiteSpace=wrap;html=1;rounded=1;flipH=1;labelPosition=right;verticalLabelPosition=middle;align=left;verticalAlign=middle;size=0.5;rotation=270;" vertex="1" parent="1">
          <mxGeometry x="245" y="44" width="30" height="120" as="geometry" />
        </mxCell>
        <mxCell id="c8Kz1cjIccoRoO9TKuOa-12" value="Example Domain" style="text;html=1;align=center;verticalAlign=middle;resizable=0;points=[];autosize=1;strokeColor=none;fillColor=none;" vertex="1" parent="1">
          <mxGeometry x="205" y="61" width="110" height="30" as="geometry" />
        </mxCell>
        <mxCell id="c8Kz1cjIccoRoO9TKuOa-13" value="" style="endArrow=classic;html=1;rounded=0;exitX=0.5;exitY=1;exitDx=0;exitDy=0;strokeWidth=3;" edge="1" parent="1" source="HqwWWxnO23v2ZquKlt4F-2" target="c8Kz1cjIccoRoO9TKuOa-2">
          <mxGeometry width="50" height="50" relative="1" as="geometry">
            <mxPoint x="400" y="320" as="sourcePoint" />
            <mxPoint x="450" y="270" as="targetPoint" />
          </mxGeometry>
        </mxCell>
        <mxCell id="c8Kz1cjIccoRoO9TKuOa-14" value="" style="endArrow=classic;html=1;rounded=0;exitX=0.5;exitY=1;exitDx=0;exitDy=0;strokeWidth=3;" edge="1" parent="1" source="c8Kz1cjIccoRoO9TKuOa-4" target="c8Kz1cjIccoRoO9TKuOa-2">
          <mxGeometry width="50" height="50" relative="1" as="geometry">
            <mxPoint x="410" y="210" as="sourcePoint" />
            <mxPoint x="383" y="250" as="targetPoint" />
          </mxGeometry>
        </mxCell>
        <mxCell id="c8Kz1cjIccoRoO9TKuOa-15" value="" style="endArrow=classic;html=1;rounded=0;exitX=0.5;exitY=1;exitDx=0;exitDy=0;strokeWidth=3;entryX=0.25;entryY=0;entryDx=0;entryDy=0;" edge="1" parent="1" source="c8Kz1cjIccoRoO9TKuOa-4" target="HqwWWxnO23v2ZquKlt4F-1">
          <mxGeometry width="50" height="50" relative="1" as="geometry">
            <mxPoint x="420" y="220" as="sourcePoint" />
            <mxPoint x="393" y="260" as="targetPoint" />
          </mxGeometry>
        </mxCell>
        <mxCell id="c8Kz1cjIccoRoO9TKuOa-17" value="" style="endArrow=classic;html=1;rounded=0;exitX=0.5;exitY=1;exitDx=0;exitDy=0;strokeWidth=3;entryX=0.5;entryY=0;entryDx=0;entryDy=0;" edge="1" parent="1" source="c8Kz1cjIccoRoO9TKuOa-19" target="c8Kz1cjIccoRoO9TKuOa-24">
          <mxGeometry width="50" height="50" relative="1" as="geometry">
            <mxPoint x="60" y="200" as="sourcePoint" />
            <mxPoint x="80" y="320" as="targetPoint" />
          </mxGeometry>
        </mxCell>
        <mxCell id="c8Kz1cjIccoRoO9TKuOa-18" value="" style="endArrow=classic;html=1;rounded=0;exitX=0.5;exitY=1;exitDx=0;exitDy=0;strokeWidth=3;entryX=0.75;entryY=0;entryDx=0;entryDy=0;" edge="1" parent="1" source="HqwWWxnO23v2ZquKlt4F-2" target="HqwWWxnO23v2ZquKlt4F-1">
          <mxGeometry width="50" height="50" relative="1" as="geometry">
            <mxPoint x="410" y="210" as="sourcePoint" />
            <mxPoint x="383" y="250" as="targetPoint" />
          </mxGeometry>
        </mxCell>
        <mxCell id="c8Kz1cjIccoRoO9TKuOa-19" value="Other eval." style="rounded=1;whiteSpace=wrap;html=1;fillColor=#fff2cc;strokeColor=#d6b656;" vertex="1" parent="1">
          <mxGeometry x="40" y="140" width="80" height="60" as="geometry" />
        </mxCell>
        <mxCell id="c8Kz1cjIccoRoO9TKuOa-21" value="" style="shape=curlyBracket;whiteSpace=wrap;html=1;rounded=1;flipH=1;labelPosition=right;verticalLabelPosition=middle;align=left;verticalAlign=middle;size=0.5;rotation=270;" vertex="1" parent="1">
          <mxGeometry x="86" y="44" width="30" height="120" as="geometry" />
        </mxCell>
        <mxCell id="c8Kz1cjIccoRoO9TKuOa-22" value="Example Domain" style="text;html=1;align=center;verticalAlign=middle;resizable=0;points=[];autosize=1;strokeColor=none;fillColor=none;" vertex="1" parent="1">
          <mxGeometry x="46" y="61" width="110" height="30" as="geometry" />
        </mxCell>
        <mxCell id="c8Kz1cjIccoRoO9TKuOa-23" value="" style="endArrow=classic;html=1;rounded=0;exitX=0.5;exitY=1;exitDx=0;exitDy=0;strokeWidth=3;entryX=0.139;entryY=0;entryDx=0;entryDy=0;entryPerimeter=0;" edge="1" parent="1" source="c8Kz1cjIccoRoO9TKuOa-19" target="HqwWWxnO23v2ZquKlt4F-1">
          <mxGeometry width="50" height="50" relative="1" as="geometry">
            <mxPoint x="150" y="210" as="sourcePoint" />
            <mxPoint x="210" y="280" as="targetPoint" />
          </mxGeometry>
        </mxCell>
        <mxCell id="c8Kz1cjIccoRoO9TKuOa-24" value="other runtime" style="rounded=0;whiteSpace=wrap;html=1;fillColor=#dae8fc;strokeColor=#6c8ebf;" vertex="1" parent="1">
          <mxGeometry x="40" y="280" width="120" height="40" as="geometry" />
        </mxCell>
      </root>
    </mxGraphModel>
  </diagram>
</mxfile>
